<?xml version="1.0" encoding="UTF-8"?>
<!DOCTYPE svg PUBLIC "-//W3C//DTD SVG 1.1//EN" "http://www.w3.org/Graphics/SVG/1.1/DTD/svg11.dtd">
<!-- Creator: CorelDRAW X7 -->
<svg xmlns="http://www.w3.org/2000/svg" xml:space="preserve" width="1758px" height="1900px" version="1.1" style="shape-rendering:geometricPrecision; text-rendering:geometricPrecision; image-rendering:optimizeQuality; fill-rule:evenodd; clip-rule:evenodd"
viewBox="0 0 1758 1900"
 xmlns:xlink="http://www.w3.org/1999/xlink">
 <defs>
  <style type="text/css">
   <![CDATA[
    .str0 {stroke:white;stroke-width:0.900001}
    .fil1 {fill:#1D5D7A}
    .fil3 {fill:#84A7B6}
    .fil2 {fill:#E86565}
    .fil0 {fill:white}
   ]]>
  </style>
 </defs>
 <g id="Capa_x0020_1">
  <metadata id="CorelCorpID_0Corel-Layer"/>
  <path class="fil0 str0" d="M881 194c416,0 753,338 753,755 0,417 -337,755 -753,755 -416,0 -753,-338 -753,-755 0,-417 337,-755 753,-755z"/>
  <g id="_349076608">
   <path class="fil1" d="M1182 261l2 -5 -44 -18c29,-6 17,-6 26,-8 6,-2 9,-1 12,-5 10,-7 5,-19 -8,-11 -5,4 -5,5 -6,10 -7,22 -62,3 -75,-2 10,-1 16,-1 26,-3 10,-3 13,-7 19,-9 0,0 32,-2 26,-27 -8,-4 -15,-1 -21,5 -9,8 -5,10 -7,20 -12,8 -25,11 -44,10 -14,0 -37,-3 -47,-8 30,-3 47,-7 64,-26 0,0 1,-1 2,-2 5,-4 19,-3 24,-21 7,-19 -12,-23 -23,-6 -8,11 -5,14 -3,24 -33,37 -72,28 -117,22 -15,-2 -30,-4 -46,-5 -56,-4 -140,-3 -190,8 15,-29 42,-56 81,-69 16,-5 34,-6 51,-3 16,4 10,29 61,35 -2,-5 -13,-17 -16,-20 -8,-6 -12,-7 -21,-12 18,0 25,1 40,-5 11,-5 21,-11 29,-18 -71,-11 -74,20 -90,19 -15,-1 -21,-3 -38,-2l2 -2c8,-7 30,-17 32,-35 2,-15 -3,-9 5,-20 17,-21 25,-35 23,-72 -8,0 -9,5 -14,11 -17,24 -16,34 -16,63 -9,-17 -9,-25 -21,-39 -5,-5 -25,-21 -36,-25 5,25 18,44 37,57 6,4 16,9 20,12 1,15 -3,21 -9,29 -18,22 -50,25 -73,41 -9,7 -23,18 -30,27 -6,8 -10,12 -16,22 -4,7 -2,6 -11,8 -11,2 -24,5 -33,6 20,-15 15,-15 21,-28 8,-16 45,-24 47,-104 -9,5 -32,32 -35,44 -2,2 -1,0 -3,3l0 -4c0,-9 -11,-45 -18,-51 -6,30 -17,40 -7,75 4,13 9,22 13,32 4,12 -8,24 -15,28 -14,10 -70,24 -99,35 -10,3 -23,10 -32,12 14,-14 9,-5 26,-26 3,-3 4,-7 7,-10 6,-7 32,-16 39,-32 6,1 29,18 52,1 -18,-13 -29,-13 -49,-6 0,0 1,-1 1,0 0,0 0,-2 0,-2 1,-1 1,-1 2,-2 3,-6 6,-9 7,-17 0,-8 -2,-21 -5,-27 -23,23 -10,41 -10,54 -5,3 -9,9 -15,13 -5,5 -11,8 -17,12 -3,-2 0,-3 2,-10 2,-4 3,-8 4,-12 1,-9 1,-17 -1,-26 -7,-29 -12,-10 1,-40 15,-35 10,-61 2,-97 -6,6 -15,34 -18,44 -5,22 -1,33 0,55 -9,-17 -12,-26 -25,-36 -10,-8 -26,-17 -40,-21 2,9 11,30 15,37 22,37 52,32 59,47 18,43 -14,82 -47,104 -13,10 -56,27 -69,37l9 -10c9,-11 18,-22 21,-38 4,-16 -5,-53 -13,-64 -5,7 -32,23 -43,48 -15,35 3,47 6,75l-54 37c3,-6 8,-11 12,-19 12,-25 2,-50 -12,-71 -56,61 -21,75 -15,102l-18 16 4 5c4,2 8,5 12,8 4,3 9,6 13,9 52,28 69,-5 97,-13 -3,-4 -7,-6 -10,-9 -11,-8 -23,-15 -37,-20 -21,-8 -44,-1 -57,9l-1 0c0,-3 55,-41 61,-43 16,14 29,34 57,44 14,5 29,3 43,-1 10,-3 29,-9 36,-14 -20,-27 -56,-57 -95,-46 -11,4 -27,11 -36,13 39,-25 78,-46 127,-46 19,1 37,4 52,13 14,8 26,17 36,29 4,6 14,20 17,28 -22,27 -43,42 -62,79 -16,30 -24,74 -26,113 4,-3 4,-5 7,-9 54,-55 72,-86 82,-175 6,66 -6,80 44,136 5,5 9,9 15,14 3,4 12,10 14,14 3,-15 -1,-63 -5,-78 -8,-33 -27,-56 -48,-77 -9,-8 -15,-9 -21,-22 -8,-17 -18,-29 -32,-42l-5 -5c0,0 -1,-1 -1,-1 11,1 19,2 29,0 13,-3 14,1 26,1 17,0 27,-11 38,-20l-14 -3c4,-5 5,-4 7,-10 -56,0 -39,30 -69,31 -33,1 -43,-17 -82,-18 -24,0 -37,4 -58,8 7,-1 37,-17 47,-21 56,-22 114,-41 169,-11 23,13 24,20 24,47 0,21 1,42 9,61 9,23 20,37 34,55 2,4 4,5 8,9 3,4 13,16 16,18 1,-33 0,-65 -12,-95 -3,-7 -10,-18 -11,-23 24,22 69,37 113,42 -27,-41 -60,-72 -110,-85 -13,-3 -26,-6 -40,-8 -8,-2 -17,-14 -28,-21 -26,-16 -47,-16 -81,-18l11 -4c29,-6 59,-14 88,-15 15,15 16,23 36,34 49,28 75,10 88,14 7,1 17,9 24,12 24,9 37,5 62,2 -6,-6 -21,-14 -31,-17 -18,-7 -23,-4 -41,-4 17,-7 32,-16 39,-34 -43,5 -48,35 -60,39 -25,6 -59,-2 -80,-14 -7,-5 -13,-9 -18,-14 -5,-5 -14,-12 -15,-19 64,-5 190,-9 251,18 23,10 41,23 43,50l-1 2c-16,12 -9,30 0,35 14,7 22,-20 10,-31 -4,-5 -4,-1 -5,-8 -5,-19 -10,-28 -29,-40l-18 -12c37,6 77,26 83,59 -5,4 -8,8 -8,16 0,7 4,14 8,16 14,6 17,-17 10,-27 -7,-8 -6,-2 -9,-14 -2,-7 -5,-11 -9,-15 -7,-9 -17,-15 -27,-22 20,3 36,11 50,22 4,2 14,14 13,22 0,5 -4,6 -4,13 -2,17 17,14 12,-3 -1,-4 -2,-5 -3,-7 -5,-10 -3,-21 -21,-32l42 17z"/>
   <path class="fil1" d="M1358 1538l-3 -3c-4,-4 -8,-6 -13,-10 -26,-18 -51,-28 -81,-12 -6,3 -24,11 -28,17 6,3 12,8 17,11 9,7 18,13 30,17 26,9 36,1 56,-8 -3,2 -4,3 -7,6 -14,11 -38,28 -53,35 -13,-14 -32,-36 -56,-45 -15,-5 -28,-3 -43,0 -12,4 -27,9 -37,14 7,9 14,17 23,24 20,17 40,30 69,24 13,-4 24,-10 36,-12 -10,8 -42,24 -56,30 -19,7 -50,13 -73,12 -28,-1 -45,-10 -63,-22 -12,-9 -30,-30 -37,-49 1,-5 21,-23 26,-28 3,-3 6,-5 9,-9 10,-12 22,-27 29,-41 15,-29 22,-64 26,-96 1,-5 2,-9 1,-12 0,-4 0,-1 -1,-4 -6,10 -17,20 -25,28 -14,15 -25,29 -36,47 -26,46 -24,91 -30,107 -2,-44 4,-66 -17,-102 -13,-24 -33,-45 -54,-63 -9,130 53,143 74,182 5,10 27,42 38,45 -8,1 -19,-2 -29,0 -22,2 -41,-12 -67,17l13 4 -3 5c-1,2 -1,2 -3,5 60,0 37,-30 71,-30 10,0 20,1 28,5 40,21 69,12 110,6l-50 21c-54,20 -111,39 -166,7 -7,-5 -14,-11 -19,-16 -14,-16 14,-68 -37,-137 -8,-10 -23,-30 -32,-37 -1,40 -2,72 16,107 2,3 7,10 5,12 -20,-22 -72,-40 -113,-45 2,5 7,9 10,14 4,5 7,10 11,14 23,31 49,48 90,59 13,4 26,6 40,10 8,1 10,6 15,11 27,25 59,24 95,27 -5,1 -71,17 -105,19 -5,-12 -25,-30 -37,-36 -16,-10 -33,-16 -56,-16 -7,0 -29,4 -31,3 -17,-5 -28,-29 -85,-16l14 11c5,2 11,5 16,7 17,6 24,5 42,3l-13 7c-11,6 -19,16 -25,27 20,-4 35,-10 44,-21 5,-6 8,-15 16,-17 9,-2 22,-2 31,-1 31,2 74,26 82,50 -53,4 -290,18 -294,-75 17,-4 13,-32 2,-35 -15,-5 -21,21 -9,32 8,7 3,10 8,21 9,21 25,27 43,39 -32,-5 -79,-28 -82,-60l4 -4c6,-8 3,-26 -6,-30 -12,-3 -16,21 -6,30 5,5 3,-1 6,8 2,9 6,17 12,23 8,9 19,15 27,21 -18,-4 -38,-12 -50,-22 -29,-25 -2,-32 -15,-50 -8,0 -11,5 -9,14 0,5 2,5 4,7 7,10 0,19 22,34 -13,-2 -30,-13 -44,-17 0,1 -4,-2 0,4l45 19c-25,1 -22,6 -29,7 -5,1 -9,0 -14,4 -8,8 -2,19 10,11 5,-4 3,-5 6,-10 11,-21 69,3 75,4 -14,1 -24,0 -37,6 -3,2 -7,5 -9,5 0,0 -32,1 -26,26 15,6 30,-6 27,-23 16,-7 18,-12 45,-11 12,1 36,5 45,9 -13,3 -22,3 -35,7 -29,10 -24,20 -33,22 -7,2 -7,1 -14,8 -6,5 -13,21 -5,27 10,6 22,-7 24,-13 9,-18 -6,-16 5,-27 11,-12 35,-20 59,-20 23,0 48,6 71,10 92,12 127,7 219,-3 -3,7 -12,19 -16,23 -26,28 -60,51 -102,49 -5,0 -12,-1 -16,-2 -13,-4 -6,-15 -31,-27 -4,-2 -25,-9 -27,-9l0 3c0,1 1,1 1,2l5 7c12,15 10,10 29,21 -18,-1 -26,-2 -41,5 -7,3 -25,12 -28,16 21,9 51,4 68,-6 20,-11 15,-12 27,-10 15,3 24,2 38,1 -6,2 -26,16 -30,19 -17,18 -5,26 -14,36 -21,28 -25,30 -25,74 7,0 6,-1 9,-5 17,-22 22,-29 22,-65l9 22c6,10 19,23 28,29 5,4 12,8 18,10 -6,-33 -23,-49 -45,-63 -7,-5 -11,-4 -10,-16 1,-8 4,-12 9,-17 8,-10 18,-16 31,-22 13,-6 25,-10 37,-17 23,-14 40,-31 54,-54 5,-7 11,-6 20,-7 7,-2 15,-4 21,-4 3,-2 0,-1 5,-2 -2,2 4,1 -4,2 -22,16 -15,16 -22,30l-25 25c-14,17 -25,60 -21,76 0,-3 6,-7 9,-10 21,-17 19,-22 27,-33 8,25 3,19 18,52l2 -4c0,-1 2,-4 2,-5 1,-2 2,-6 3,-9 2,-6 3,-12 4,-18 6,-37 -15,-67 -15,-76 0,-12 13,-22 20,-26 0,-2 -1,-2 1,-1 6,-2 10,-5 16,-6l113 -37c-7,6 -14,11 -20,17 -18,19 -11,20 -27,29l-17 11c0,0 -1,0 -1,0l-12 13c-4,-2 -25,-17 -48,-3 -2,1 -1,0 -3,2 7,3 13,9 23,10 18,3 22,-8 27,-4l-2 3c-12,15 -11,34 -4,44 4,-4 11,-13 12,-19 4,-12 1,-19 -1,-29 -2,-6 1,-7 8,-13l5 -4c4,-4 13,-10 19,-11 -6,13 -9,31 -5,48 8,27 10,9 -2,39 -13,30 -13,63 -4,95 2,-1 1,-1 2,-2l9 -19c14,-32 11,-45 9,-77 3,6 6,15 11,21 9,15 35,32 52,37 -10,-45 -30,-61 -63,-77 -4,-2 -4,-1 -7,-6 -23,-44 16,-91 53,-111 12,-7 26,-13 38,-19 12,-6 23,-13 35,-18l-23 22c-23,27 -22,48 -12,80l6 16 26 -21c7,-7 13,-16 19,-27 16,-31 -5,-50 -6,-76 9,-8 23,-15 33,-21l31 -22c-10,11 -24,26 -26,46 -3,18 11,47 17,53 11,-11 26,-30 29,-45 7,-29 -11,-39 -15,-59 7,-4 13,-10 19,-14z"/>
   <path class="fil1" d="M1490 1392c-3,6 1,5 4,2l33 -48c-22,56 -20,88 16,135l13 17c5,6 9,10 13,17l4 -6c1,-2 2,-4 4,-6 16,-28 32,-60 34,-94 2,-49 -30,-73 -47,-100 -20,3 -26,-5 -33,-13 -86,-26 -111,-29 -175,38 -5,5 -12,13 -16,18 25,13 74,28 106,26 25,-1 43,-10 58,-24 10,-9 17,-14 26,-26l-29 48c-3,6 -8,11 -11,16z"/>
   <path class="fil1" d="M266 515c-2,-2 -1,-1 -3,-1l-28 40c7,-33 17,-53 -2,-92 -6,-11 -38,-55 -48,-64 -6,6 -22,39 -26,48 -7,20 -13,36 -14,60 -1,49 36,75 49,97 16,-2 25,4 32,12 31,14 84,23 117,8 25,-11 40,-31 57,-48 6,-6 13,-12 18,-20 -28,-5 -67,-31 -118,-22 -46,8 -70,51 -82,60 7,-14 15,-26 22,-39 8,-14 19,-26 26,-39z"/>
   <path class="fil1" d="M726 896c1,16 3,30 4,45 0,10 -2,39 -16,28 -13,-10 6,-63 12,-73zm23 -11c-2,-12 13,-11 20,-5 -5,6 -11,8 -20,5zm204 -73c-1,11 0,21 0,32 1,13 4,16 -4,24 -9,10 -25,27 -37,7 -17,-26 2,-81 41,-63zm-260 49c-31,3 -48,-32 -31,-48 12,-12 39,-3 31,48zm137 -8c-3,-27 23,-51 34,-37 8,9 3,43 -34,37zm-245 -14c-3,-13 4,-22 11,-27 8,7 3,22 -1,28l-10 -1zm556 -39c11,-4 19,2 23,9 5,8 -1,19 -2,28 -1,10 2,40 -25,43 -40,3 -35,-67 4,-80zm-178 43c-1,-23 0,-48 3,-71 0,-6 10,-62 23,-48 14,15 -18,108 -26,119zm-133 15c59,5 50,-67 12,-47 -21,11 -19,34 -37,58 -4,6 -9,12 -21,11 1,-6 11,-16 12,-33 2,-41 -34,-48 -61,3l-2 5c-1,2 -1,2 -2,3 -1,-12 -3,-20 1,-31 3,-11 5,-23 -8,-23 -11,16 10,50 -26,56 2,-14 2,-34 -6,-45 -20,-31 -53,2 -36,33 6,11 16,18 34,19 -12,39 -63,19 -52,-28 2,-6 3,-11 6,-16 4,-7 9,-7 5,-12 -5,7 -11,11 -15,20 -8,16 -15,64 -51,59 -43,-6 -31,-98 9,-83 -4,6 -10,10 -12,19 -6,25 24,26 25,0 1,-11 -5,-14 -4,-22l-2 -2c-13,1 -17,-5 -30,3 -22,15 -21,37 -32,58 -10,19 -30,31 -31,2 -1,-21 10,-52 7,-56 -5,0 -4,2 -7,8l-12 35c-5,13 -15,35 -25,39 4,-10 7,-16 3,-28 -5,-16 -23,-26 -28,-40 -3,-8 8,-19 -2,-26 -6,0 -9,5 -9,11 -2,9 3,9 1,18 -1,11 -7,23 -9,33l5 -5c4,-6 8,-16 9,-23l8 8c6,10 14,17 15,30 2,14 -4,30 -19,26 -7,-2 -2,-5 -10,-2 3,15 46,15 61,-28 5,13 5,28 26,24 6,-2 11,-7 14,-11 3,-3 3,-3 5,-7 2,-4 2,-5 6,-8 7,42 56,44 76,13 3,-4 4,-9 7,-12 10,40 41,40 57,24 11,-10 4,-19 19,-24 7,-2 11,-9 17,-14 8,42 -8,34 -18,88 -2,15 -1,39 16,38 31,-2 13,-77 14,-96 0,-12 20,-50 31,-58 10,-6 18,-3 20,6 6,17 -4,36 -9,47 -10,-2 -25,-8 -30,3 -6,13 12,15 23,11 9,-3 5,-5 15,-4 18,2 26,-10 35,-25 3,11 4,19 10,25 15,15 37,12 50,-2 6,-6 10,-14 15,-21 6,13 6,29 27,30 18,1 25,-14 36,-24 0,0 0,0 0,1l1 3c1,1 2,2 2,3 8,15 27,15 39,-8l5 -8c8,32 36,33 49,15l6 -8c2,10 9,18 21,14 12,-4 10,-13 18,-21 4,15 8,27 26,29 12,1 23,-4 31,-11l6 -5c0,21 3,48 -10,66 -5,8 -20,15 -34,9 -29,-12 -9,-60 18,-36l4 -3c-43,-35 -63,50 -7,46 21,-2 31,-15 37,-32 8,-28 -3,-76 7,-114 1,-5 6,-12 1,-13 -4,-1 -2,-1 -4,4 -1,2 -2,5 -3,8 -8,-7 -11,-18 -32,-12 -26,9 -34,33 -42,55 -5,10 -11,28 -24,24 -9,-8 -4,-29 -2,-42l-7 -1c-6,16 -3,36 -20,47 -20,12 -29,-14 -26,-37 6,-44 49,-53 44,-25 -1,5 -3,8 -6,11 -6,6 -7,2 -8,9 8,5 22,-15 20,-27 -2,-16 -20,-17 -33,-10 -28,14 -24,36 -39,64 -6,11 -22,25 -28,6 -6,-17 2,-23 8,-37 4,-9 45,-125 7,-114 -9,3 -17,20 -20,31 -4,14 -7,30 -8,45 0,14 3,13 -8,10 -20,-6 -39,9 -47,27 -7,17 -15,62 -45,58 -15,-2 -21,-15 -23,-31z"/>
   <path class="fil1" d="M128 943l-4 -1 -1 23c-7,-13 -27,-30 -41,-36l-3 31c-15,-2 -20,-12 -79,-10 2,7 11,26 15,34 5,10 12,23 19,29 15,13 46,26 75,23 3,-8 1,-11 7,-17 4,-4 9,-8 17,-8 15,-1 25,10 26,25 8,4 15,9 27,11 11,3 23,1 35,-2 11,-4 45,-21 50,-27 -5,-3 -9,-6 -15,-9 -5,-4 -10,-7 -16,-10 -11,-7 -22,-12 -39,-12 14,-25 22,-36 26,-72 -39,4 -72,17 -86,52 -3,9 -7,28 -11,35l-2 -59z"/>
   <path class="fil1" d="M1592 706c3,-1 3,-1 5,-3 -2,-13 -6,-28 -3,-40 9,-35 58,-42 68,-71 -26,-6 -32,1 -45,15 -11,12 -16,25 -23,41 -2,-19 -3,-47 1,-66 6,-28 18,-32 24,-44 -22,1 -46,19 -45,41 0,13 7,21 10,32 3,9 7,26 4,36 1,-4 -26,-70 -30,-82 -10,-34 -14,-62 -3,-96 -3,2 -5,3 -8,6 -18,14 -24,37 -23,59 1,9 5,20 5,26 -3,-8 -37,-54 -39,-60l-4 3c7,11 18,24 28,41 6,10 21,33 25,43 -19,-14 -26,-33 -33,-43 0,0 0,0 0,-1 -8,39 31,60 51,79 5,5 9,18 12,26 0,0 1,0 1,0l1 2c0,0 0,0 0,1 0,0 0,0 1,0l-4 0c-1,-1 0,-1 -2,-2 -13,-9 -25,-19 -34,-31 0,9 2,15 6,21 9,14 24,23 35,32 1,2 2,2 3,3l5 5c-61,-13 -73,-60 -89,-114 -11,13 -6,37 1,51 5,8 15,19 22,27 2,1 3,2 4,4l5 5c-16,-5 -36,-17 -49,-26 -16,-12 -22,-23 -30,-46 -9,12 -9,48 14,59 14,8 43,3 65,19 -19,-2 -79,-9 -98,-14 -31,-7 -61,-23 -74,-41 1,26 18,44 32,53 21,13 42,15 70,15 -6,10 -45,11 -58,11 11,20 50,10 66,4 17,-6 47,-21 67,-12 -12,8 -39,18 -56,22 11,3 11,7 28,4 9,-2 18,-6 26,-9 18,-8 35,-17 56,-9 1,1 1,2 2,3l7 21z"/>
   <path class="fil1" d="M365 403l3 -4c-2,-2 1,-2 -2,-3 -7,5 -14,12 -20,17 -3,4 -5,6 -9,10 -5,6 -8,11 -9,8 13,-15 29,-47 25,-76 -4,-26 -23,-51 -32,-71 -19,17 -43,57 -48,80 -9,43 23,73 30,97 -6,6 -10,13 -15,19l3 2c2,-2 4,-5 6,-8 3,-3 5,-5 8,-9 12,2 48,33 91,31 20,-1 38,-12 52,-22 8,-5 24,-16 28,-21 -1,-1 -1,-1 -1,-1l-8 -4c-36,-21 -76,-45 -119,-18 -12,8 -21,15 -33,24l24 -25c8,-10 16,-18 26,-26z"/>
   <path class="fil1" d="M1466 1430c-1,-2 2,-1 -2,-3 -5,4 -12,13 -15,18 -23,-6 -69,-60 -136,-17l-35 26c14,12 54,32 78,34 32,5 53,-12 77,-29l4 -4c0,1 1,0 1,1 0,3 2,-2 -6,7 -7,8 -40,42 -46,46l2 3c4,-4 8,-6 12,-10l20 -20c8,-8 10,-12 11,-10 -6,6 -16,23 -21,34 -27,57 8,84 21,120l5 -5c2,-3 2,-4 4,-5 4,-5 6,-7 9,-11 6,-7 10,-13 15,-21 45,-71 -9,-111 -12,-134 -1,-6 9,-11 14,-20z"/>
   <path class="fil1" d="M125 916l4 0c0,-15 -1,-19 6,-30 24,-33 58,-31 64,-48 6,-21 -21,-32 -40,-12 -8,8 -10,11 -16,22 -5,9 -7,18 -11,27 0,-8 2,-29 4,-37 2,-8 13,-18 18,-22 23,-18 46,-18 55,-27 16,-18 -7,-42 -35,-21 -21,16 -30,44 -34,49 1,-10 6,-42 12,-49 28,-31 55,-27 69,-37 27,-20 -18,-68 -67,22 4,-25 23,-75 33,-97l-4 -2c-4,14 -11,28 -16,42l-15 44c2,-96 -60,-69 -44,-42 4,7 10,14 15,20 26,34 21,46 16,78 -3,-9 -2,-21 -5,-31 -14,-45 -61,-28 -37,3 15,20 39,39 34,75 -1,6 -4,28 -4,31 -4,-91 -60,-79 -54,-51 3,10 26,27 36,39 17,19 15,35 16,54z"/>
   <path class="fil1" d="M1569 1255l4 2c6,-16 14,-33 20,-50 4,-12 15,-41 16,-52 1,24 -6,45 7,67 15,28 42,19 39,-2 -1,-7 -12,-19 -16,-23 -6,-8 -10,-13 -15,-22 -10,-17 -12,-43 -4,-61 2,22 6,46 19,55 21,16 41,-5 24,-24 -14,-18 -41,-41 -36,-72 2,-10 3,-21 5,-31 3,93 60,79 52,50 -2,-9 -26,-29 -34,-39 -13,-16 -16,-31 -14,-55l-3 -1c-2,14 0,20 -7,30 -3,4 -7,7 -10,10 -2,3 -6,6 -9,9 -12,9 -43,17 -48,30 -6,19 17,32 42,11 8,-7 24,-35 27,-49 1,7 -3,30 -5,36 -3,9 -12,18 -19,23 -14,13 -48,20 -55,29 -16,19 9,40 39,17 10,-8 27,-36 32,-53 -1,14 -9,52 -18,61 -13,13 -31,20 -54,27 -30,11 -17,42 11,33 21,-6 31,-26 41,-40 -5,26 -23,61 -31,84z"/>
   <path class="fil1" d="M1051 1145c-2,-79 31,-95 31,-67 1,19 -18,69 -28,88 -1,3 -1,2 -3,5l0 -26zm-11 11c0,22 4,27 -5,45 -10,21 -26,30 -32,14 -7,-22 10,-60 6,-65 -4,0 -2,-4 -7,8 -4,11 -23,82 -41,72 -14,-9 15,-73 -20,-70 -8,1 -12,4 -16,9l-4 5c-1,-12 -7,-27 -21,-21 -11,5 -13,15 -19,26 -2,-12 -3,-25 -17,-22 -10,1 -14,13 -17,24 -4,12 -19,55 -32,47 -10,-8 -5,-29 -2,-41l-8 -2c-4,9 -3,36 -20,47 -9,5 -18,0 -22,-6 -11,-18 -2,-64 23,-71 12,-3 20,5 18,16 -2,6 -6,10 -11,14 -6,4 -3,-1 -4,5 10,7 34,-31 10,-39 -22,-8 -39,13 -46,25 -26,49 18,85 44,50 0,0 1,-2 1,-2l4 -4c2,11 8,19 21,14 12,-5 26,-39 27,-51 0,0 0,0 0,0l5 -11c5,-11 20,-23 16,27 -1,14 -3,26 -5,38l9 2c2,-16 7,-34 11,-49 2,-7 4,-14 7,-21 4,-7 7,-12 17,-11 10,20 -5,52 -3,71l9 1c1,-13 10,-69 28,-65 19,4 -14,68 16,72 11,2 16,-5 19,-11 5,-6 9,-12 12,-20 2,5 4,32 28,22 11,-4 18,-18 23,-30 3,16 9,37 23,38 13,1 20,-11 25,-20l4 -8c1,-2 1,-1 2,-2 6,31 35,34 49,16l7 -8c3,17 24,29 42,-17 1,-4 8,-16 6,-21 -7,0 -2,-3 -6,5 0,1 -2,5 -2,7 -4,10 -14,41 -27,33 -9,-7 -4,-28 -2,-41l-8 -2c-3,9 -2,36 -20,47 -17,11 -29,-9 -25,-36 5,-47 48,-52 44,-25 -1,7 -6,10 -11,14 -6,5 -3,-1 -3,5 5,5 16,-9 18,-15 11,-31 -34,-39 -56,4 -8,18 -12,38 -23,52 -17,21 -27,-23 -27,-40 1,-8 44,-85 34,-114 -3,-12 -25,-20 -37,19 -7,21 -9,43 -9,67z"/>
   <path class="fil1" d="M1629 902c-10,0 -17,-2 -22,-7 -6,-6 -5,-11 -8,-19 -21,-9 -31,-17 -61,-9 -12,3 -44,19 -50,26l31 20c14,9 19,10 39,13 -14,16 -24,43 -29,71 28,-4 56,-11 71,-26 14,-14 25,-42 29,-69z"/>
   <path class="fil1" d="M1627 853c12,2 17,7 21,17 30,6 40,10 67,-5 8,-5 17,-13 23,-19 4,-3 6,-7 10,-10 4,-5 6,-5 10,-11l-27 -9c-10,-3 -18,-5 -28,-6 4,-20 5,-35 6,-56 -16,4 -45,18 -54,27 -15,15 -20,27 -25,55 -3,-7 -7,-37 -10,-47 -3,-16 -7,-30 -10,-45l-6 0c5,17 10,35 14,53 4,18 7,37 9,56z"/>
   <path class="fil1" d="M168 1211c2,49 -53,60 -58,91 45,9 52,-49 60,-62 5,10 9,46 8,59 -2,31 -13,37 -19,51 22,-4 44,-26 40,-47 -3,-12 -10,-20 -14,-29 -5,-9 -9,-23 -10,-34 4,5 6,13 11,20 28,48 55,89 47,149 5,-2 9,-9 13,-15 1,-2 3,-5 4,-8 1,-2 2,-3 2,-5l3 -5 17 25c3,0 2,1 4,-1 -10,-18 -21,-20 -20,-40 1,-36 -22,-57 -28,-72 20,7 35,33 43,41 5,-53 -75,-61 -86,-103 7,3 49,27 50,34 3,-22 -37,-44 -53,-51l-1 -1 -2 -2c-3,-2 2,0 -3,-1 -4,4 -5,4 -8,6z"/>
   <path class="fil1" d="M130 1060c-14,-4 -13,-6 -20,-16 -36,-13 -66,1 -89,25l-19 23c10,4 43,11 55,13 -4,20 -5,35 -5,56 9,-4 22,-10 31,-14 13,-6 18,-9 27,-18 13,-15 21,-43 20,-69z"/>
   <path class="fil1" d="M189 1203l-11 2 4 0 2 1c14,3 27,5 38,12 39,23 45,64 60,88 8,-16 1,-39 -8,-50 -19,-22 -25,-22 -35,-31 0,0 0,0 0,0 0,-1 -1,-1 -1,-1 18,3 41,12 54,21 23,15 22,20 35,39 6,-8 2,-25 -2,-35 -4,-10 -10,-18 -20,-22 -13,-4 -24,0 -38,-1 -8,-1 -30,-8 -32,-8l49 -1c33,-1 66,0 96,11 9,3 29,13 34,21l1 -3c1,0 -7,-30 -38,-44 -26,-13 -44,-9 -72,-7 9,-11 38,-15 56,-18 -19,-17 -47,-5 -66,5 -20,10 -36,23 -65,21 13,-9 36,-23 52,-29 -13,-10 -40,4 -48,10 -13,7 -28,20 -45,19z"/>
   <path class="fil1" d="M1214 270l-4 4c24,9 34,45 29,72 -5,-8 -21,12 -21,21 7,0 13,-8 17,-13 -1,12 -4,25 3,34 8,-3 8,-18 7,-27 0,-6 -3,-10 -3,-14 -1,-5 2,-11 2,-16 0,-16 -9,-43 -18,-49 13,6 28,13 38,21 0,18 -4,31 3,48 -5,4 -7,8 -11,16 -3,8 -4,16 -2,24 14,-2 13,-24 17,-33 4,6 6,7 10,12 6,7 3,5 4,17 1,9 7,26 14,26l2 -7c0,-3 0,-7 -1,-10 -1,-7 -3,-11 -5,-16 10,1 18,5 28,1 -2,-13 -28,-13 -40,-13 -6,-3 -13,-16 -16,-26 -3,-10 -2,-27 1,-38 12,6 68,43 74,52 -2,12 -6,25 -3,37 4,12 1,4 -1,16 -1,6 0,14 2,18 6,-3 6,-13 6,-20 12,6 7,22 22,24 0,-7 -3,-9 -6,-15l16 3c-2,-7 -8,-10 -15,-11 -11,-3 -12,1 -18,-8 -6,-12 -4,-30 0,-43 2,3 4,3 8,6l93 90c4,4 10,13 13,15 3,-2 0,1 3,-3 -2,-1 -3,-3 -5,-5 -2,-3 -3,-4 -5,-6 -16,-19 -53,-56 -71,-72l-35 -28c-15,-13 -36,-28 -53,-39l-5 -4c22,-11 51,-9 74,2 -9,13 13,63 28,64 12,-16 -13,-52 -18,-60 15,6 17,12 35,16 13,3 39,7 46,-3 -3,-14 -41,-18 -58,-16 -19,3 2,10 -26,-2 -8,-3 -19,-5 -27,-9 13,-3 23,-3 35,-9 21,-11 0,-6 21,-5 4,0 8,-1 13,-1 8,-2 16,-4 18,-11 -6,-3 -11,-3 -19,-2 -15,2 -13,7 -17,3 1,0 1,0 1,-1l2 -2c4,-9 -1,-4 5,-8 10,-5 25,-17 25,-30 -10,-1 -19,10 -23,14 1,-7 2,-20 -4,-24 -5,2 -6,4 -7,15 -5,28 7,21 0,34 -13,23 -54,27 -78,24 0,-14 3,-22 12,-28 9,0 18,7 28,2 -4,-8 -16,-8 -26,-8 -3,-11 -2,-11 -6,-13 -3,5 0,11 2,16 -11,15 -11,8 -13,32 -18,2 -18,6 -28,8 -9,-8 -55,-33 -69,-39z"/>
   <path class="fil1" d="M1632 905c-1,10 -4,23 -1,33 1,6 3,7 3,14 0,6 0,12 0,18l3 0 1 -16c2,5 12,13 16,17 6,4 15,13 21,13l4 -30c12,3 21,8 36,9 14,2 28,2 43,3 -6,-19 -24,-56 -34,-65 -15,-13 -46,-25 -74,-23 -2,8 -1,10 -7,16 -2,2 -3,3 -6,5 -5,3 -3,0 -5,6z"/>
   <path class="fil1" d="M538 1624c3,0 1,2 2,-3 -16,-9 -34,-40 -26,-70 4,-2 -1,0 3,0 9,-2 19,-14 19,-24 -7,0 -14,8 -17,13 1,-11 4,-26 -2,-33 -16,6 -5,41 -5,41 0,3 -2,10 -2,14 -2,24 8,38 16,51 -5,-1 -35,-18 -38,-21 2,-18 5,-32 -1,-49 6,-8 15,-21 15,-34l-3 -6c-8,-1 -14,22 -16,33 -17,-25 -12,-8 -14,-28 -1,-8 -5,-27 -13,-28 -6,10 0,24 3,33 -9,-1 -20,-5 -28,-1 1,11 27,15 39,13 14,13 24,40 14,65 -11,-7 -26,-16 -37,-25l-35 -26c1,-14 7,-25 3,-40 -3,-12 -1,-5 1,-16 1,-6 2,-14 -3,-17 -5,5 -5,12 -5,20 -10,-5 -6,-22 -21,-26 0,7 2,9 4,14 -9,-1 -22,-1 -7,7 12,6 40,-3 24,55 -10,-6 -45,-38 -56,-50 -5,-4 -9,-9 -13,-14l-38 -41 -3 3c1,2 15,18 18,22l39 39c5,4 6,5 11,10 3,4 6,6 10,9l21 18c7,6 14,11 22,17l45 33c-7,8 -26,8 -37,6 -13,-1 -25,-5 -36,-8 6,-13 -1,-29 -6,-40 -18,-45 -37,-22 -13,21l8 11 -18 -8c-12,-7 -51,-15 -62,-3 3,15 47,18 58,16 9,-1 8,-5 13,-3 0,0 25,11 41,16 -13,1 -26,2 -37,8 -18,9 0,6 -19,4 -4,0 -9,1 -14,1 -4,1 -7,3 -11,4 -5,2 -6,2 -7,6 8,8 24,1 34,-1 -2,5 -2,9 -7,12 -22,11 -30,31 -21,30l9 -4c4,-4 4,-6 9,-9 0,10 -1,17 4,23 6,-1 7,-6 8,-13 5,-27 -6,-24 -1,-34 3,-5 7,-9 10,-11 17,-14 45,-14 70,-14 -1,15 -5,24 -14,30 -5,-3 -13,-6 -20,-5l-6 2c0,7 17,8 25,8 3,7 0,11 7,13 1,-8 -1,-10 -2,-18 9,-6 12,-15 13,-30 17,-2 24,-8 29,-6 0,0 49,32 67,38z"/>
   <path class="fil1" d="M715 1176c0,-15 2,-30 5,-44 1,-6 3,-14 5,-19 1,-3 2,-6 4,-9 2,-4 1,-5 6,-6 2,16 -13,69 -20,78zm-19 48c-1,35 -1,95 -24,111 -19,13 -59,11 -68,-19 -3,-12 -1,-16 0,-22 0,-7 2,-3 -3,-6 -5,4 -4,18 -3,25 5,25 26,37 53,34 51,-4 58,-70 60,-111 2,-24 -1,-36 7,-53 5,-12 25,-67 22,-84 -1,-5 -1,-3 -3,-5 -11,-7 -24,29 -27,40 -5,19 -9,39 -11,59 -3,23 -3,21 -16,37 -14,15 -37,32 -60,20 -30,-15 -33,-71 -22,-108 16,-52 50,-80 52,-84l0 -2c0,0 0,-1 0,-1 0,0 0,-1 0,-1 -4,-1 -6,1 -8,4 -18,19 -26,23 -43,52 -14,25 -23,53 -22,87 2,76 68,79 103,42 2,-3 3,-4 6,-8l7 -7z"/>
   <path class="fil1" d="M132 1060c3,27 15,87 24,109l4 -1c-5,-22 -22,-70 -21,-93 5,20 20,38 35,45 19,10 45,12 68,13 -4,-17 -18,-49 -27,-58 -5,-4 -16,-12 -26,-16 -10,-4 -23,-7 -35,-7 -8,3 -10,8 -22,8z"/>
   <path class="fil1" d="M1254 852c-47,3 -46,-64 -13,-52 15,6 15,37 13,52zm68 -55c12,-3 19,2 23,10 5,7 -1,19 -2,27 -1,10 2,40 -25,43 -40,3 -35,-66 4,-80zm-63 54c8,-60 -26,-65 -39,-51 -14,13 -11,55 31,57 -11,39 -64,21 -52,-28 1,-5 4,-11 6,-15 4,-7 9,-7 5,-13 -4,6 -14,10 -19,31 -13,49 36,72 58,43 4,-5 9,-20 10,-18 0,0 1,0 1,0 19,-9 11,-7 19,-11 0,53 43,43 59,26 2,-3 1,-2 3,-3 1,24 6,76 -31,77 -45,1 -26,-65 5,-38l4 -3c-8,-6 -17,-14 -30,-5 -8,5 -14,18 -10,32 7,24 44,24 58,9 22,-24 11,-75 16,-115l5 -27c2,-7 3,-4 -1,-7 -4,-2 -3,3 -7,12 -5,-4 -3,-6 -10,-10 -5,-3 -10,-4 -17,-3 -21,4 -33,22 -41,40 -5,11 -10,17 -23,20z"/>
   <path class="fil1" d="M275 838c1,-6 5,-7 9,-10l1 17c-6,-2 -7,-2 -10,-7zm-41 -95c5,1 13,-5 18,-8 15,-9 40,-19 58,-22 49,-10 102,10 90,69 -10,47 -61,69 -100,65l-1 -25c11,-1 9,-1 10,-4 0,0 0,-1 -1,-1l-7 -1c0,0 -1,0 -1,-1 1,-14 3,-26 6,-40l7 -26c1,-3 3,-6 1,-9 -4,-1 -4,-1 -11,14 -15,31 -18,67 -18,67 -6,6 -14,6 -15,15 -3,12 9,11 16,16 3,18 7,36 13,53l6 11c2,2 0,1 4,2 2,-3 1,2 1,-3 1,-4 -10,-39 -10,-63 50,0 106,-20 116,-67 16,-73 -71,-106 -166,-55l-14 8c-3,3 -2,1 -2,5z"/>
   <path class="fil1" d="M1606 862c7,-5 7,-8 20,-9 -9,-26 -16,-44 -34,-57 -18,-12 -47,-16 -74,-17 14,48 31,78 88,83z"/>
   <path class="fil1" d="M539 1629l-1 -3c-19,-2 -35,-8 -57,-7 -38,3 -46,32 -55,38 -11,7 -9,5 -15,16 -7,10 -18,33 -13,47 11,1 19,-15 24,-24 8,-16 9,-21 8,-40 4,-2 5,-5 7,-7 1,14 5,38 16,42 9,-8 3,-31 -2,-41 -3,-5 -4,-6 -6,-11 4,-2 8,-6 14,-9 4,-2 10,-4 16,-5 13,-3 28,-1 40,1 -25,9 -47,25 -45,56 1,15 -1,30 4,45 2,11 8,31 20,30 8,-20 -5,-45 -8,-56 10,3 22,13 35,9l0 -2c0,0 0,-1 0,-1 -1,-6 -14,-14 -19,-17 -9,-5 -17,-7 -29,-6 -1,-19 10,-36 19,-42 18,-13 21,-14 47,-13z"/>
   <path class="fil1" d="M1214 266l0 3c18,2 38,8 56,6 41,-5 47,-34 55,-39 6,-4 7,-1 16,-16 7,-11 16,-32 12,-48 -11,-1 -22,19 -26,30 -13,33 1,32 -13,43 -1,-15 -5,-40 -17,-43 -12,12 4,42 10,53 -8,4 -11,10 -28,15 -14,3 -25,2 -39,0 6,-3 11,-4 18,-9 16,-11 26,-29 23,-51 -2,-11 1,-12 0,-23 -1,-21 -19,-63 -27,-46 0,1 -1,1 -1,2 -2,15 7,38 12,50 -10,-4 -21,-12 -35,-9 -1,9 11,16 19,20 7,3 20,9 29,6 2,20 -6,36 -16,45 -15,12 -25,14 -48,11z"/>
   <path class="fil1" d="M1389 794c-4,0 -2,-2 -5,4 -1,2 -2,5 -3,8 -6,14 -13,37 -8,53 5,19 23,21 38,5 3,-5 5,-9 8,-13 4,14 8,25 24,27 17,3 22,-6 28,-14 0,-1 2,-2 2,-2 0,0 0,-1 1,-1 0,-1 0,-1 0,-1 1,0 1,-1 1,-1 4,20 22,20 32,4 4,-6 7,-13 10,-20 2,-4 8,-17 6,-21 -6,0 -2,-5 -8,12 -4,9 -14,40 -27,33 -9,-8 -4,-29 -2,-41l-7 -2c-4,8 -3,19 -6,27 -11,25 -28,29 -37,13 -4,-7 -4,-20 -3,-30 2,-18 13,-37 27,-40 17,-4 23,14 11,26 -11,11 -8,1 -8,9 4,3 9,-2 12,-6 12,-12 11,-34 -10,-35 -37,-2 -44,50 -56,67 -18,24 -33,14 -25,-28 2,-11 8,-29 5,-33z"/>
   <path class="fil2" d="M1531 1296c7,8 13,16 33,13 10,-4 19,-11 21,-22 1,-6 0,-13 -2,-19 -4,-6 -7,-7 -10,-11l-4 -2c-14,-6 -26,-2 -34,6 -10,11 -7,22 -4,35z"/>
   <path class="fil2" d="M183 654l4 2c13,6 27,3 35,-5 11,-9 9,-21 4,-36 -7,-8 -16,-14 -32,-12 -5,2 -10,5 -13,8 -2,1 -6,8 -7,13 -4,18 5,21 9,30z"/>
   <path class="fil2" d="M109 1036l1 8c7,10 6,12 20,16l2 0c12,0 14,-5 22,-8 1,-6 4,-9 5,-16 -1,-15 -11,-26 -26,-25 -8,0 -13,4 -17,8 -6,6 -4,9 -7,17z"/>
   <path class="fil2" d="M1606 862c-2,2 -3,3 -4,7 -1,3 -2,6 -3,7 3,8 2,13 8,19 5,5 12,7 22,7 5,0 2,-1 3,3 2,-6 0,-3 5,-6 3,-2 4,-3 6,-5 6,-6 5,-8 7,-16l-2 -8c-4,-10 -9,-15 -21,-17l-1 0c-13,1 -13,4 -20,9z"/>
   <path class="fil2" d="M156 1169c-11,4 -20,12 -16,28 1,5 6,9 9,12 6,3 12,2 19,2 3,-2 4,-2 8,-6 5,1 0,-1 3,1l2 2 1 1 -1 -1c-1,-2 1,-2 -2,-2l-1 -1 11 -2 -10 0c7,-20 1,-32 -19,-35l-4 1zm28 37l-2 -1 2 1z"/>
   <path class="fil2" d="M1597 703c-2,2 -2,2 -5,3 -3,7 -9,10 -6,23 3,9 9,13 18,15l6 0c12,-2 22,-12 18,-28 -2,-5 -8,-11 -12,-13 -7,-3 -13,-1 -19,0z"/>
   <path class="fil2" d="M1462 465c-3,4 0,1 -3,3 -4,8 -9,16 -2,27 6,10 15,11 29,8l4 -3c2,-4 5,-6 6,-13 1,-7 0,-12 -4,-16 -8,-10 -16,-11 -30,-6z"/>
   <path class="fil2" d="M263 514c2,0 1,-1 3,1 9,6 22,3 27,-4 9,-13 2,-19 -2,-29l-3 -2c-13,-3 -22,-3 -28,7 -3,4 -4,10 -3,15 1,5 4,8 6,12z"/>
   <path class="fil2" d="M1464 1427c4,2 1,1 2,3 13,4 20,5 29,-5 9,-10 3,-21 -2,-28l1 -3c-3,3 -7,4 -4,-2l-1 2c-12,-3 -21,-1 -27,7 -7,10 -1,18 2,26z"/>
   <path class="fil2" d="M276 1400c-2,2 -1,1 -4,1 -3,9 -11,16 -1,28 6,8 17,8 27,5l3 -3c5,-8 10,-16 2,-27 -5,-7 -18,-12 -27,-4z"/>
   <path class="fil2" d="M1355 1535l3 3c8,5 19,8 28,0 8,-8 5,-16 2,-26l-2 -3c-10,-4 -17,-8 -27,1 -7,7 -7,14 -4,25z"/>
   <path class="fil2" d="M366 396c3,1 0,1 2,3l-3 4 3 -4c10,5 17,8 26,2 7,-5 8,-17 5,-26l-4 -5c-10,-3 -15,-9 -26,1 -7,6 -8,16 -3,25z"/>
   <path class="fil2" d="M1184 256l-2 5c-1,9 1,15 8,18 10,5 15,0 20,-5l4 -4 0 -1 0 -3c-7,-30 -30,-10 -30,-10z"/>
   <path class="fil2" d="M540 1621c-1,5 1,3 -2,3l0 2 1 3c1,10 4,15 13,16 11,2 12,-6 18,-5 -4,-6 0,-3 0,-4 0,-11 -1,-18 -10,-21 -9,-4 -16,2 -20,6z"/>
   <path class="fil2" d="M816 74c-21,5 -12,35 7,31 19,-5 14,-36 -7,-31z"/>
   <path class="fil2" d="M914 1816c4,18 34,15 31,-6 -3,-20 -36,-16 -31,6z"/>
   <path class="fil2" d="M1195 1665c-8,4 -46,32 -32,49 5,6 13,4 16,-2 4,-7 -1,-32 16,-47z"/>
   <path class="fil2" d="M727 1710c-3,-2 -8,-3 -19,-2 -21,1 -42,13 -32,25 8,11 21,-6 25,-9 8,-10 12,-11 26,-14z"/>
   <path class="fil2" d="M301 1470c-5,-4 -10,-6 -16,-9 -6,-2 -15,-4 -22,0 -12,6 -3,14 -3,16 10,4 18,-1 28,-2 14,-1 17,3 27,6 -5,-5 -8,-8 -14,-11z"/>
   <path class="fil2" d="M1474 414c-21,4 -21,-2 -35,-4 8,6 15,12 25,17 34,14 41,-11 27,-15 -5,-2 -12,1 -17,2z"/>
   <path class="fil2" d="M1564 1224c-35,11 -40,-4 -52,-1 -6,1 -9,7 -6,13 4,10 21,8 32,4 11,-5 17,-10 26,-16z"/>
   <path class="fil2" d="M1023 223c-1,1 0,1 1,1l9 11c6,14 4,29 8,35 7,11 30,0 7,-29 -7,-7 -18,-14 -24,-19l-1 1z"/>
   <path class="fil2" d="M1165 1618c-14,-1 -21,-4 -31,-11 -4,-3 -20,-17 -25,-5 -4,11 10,18 19,20 12,1 28,0 37,-4z"/>
   <path class="fil2" d="M346 1455c0,-15 -1,-19 6,-32 3,-8 15,-27 -1,-27 -22,0 -13,41 -5,59z"/>
   <path class="fil2" d="M196 688c15,-3 16,-7 36,-2 5,1 12,4 17,2 15,-5 3,-42 -53,0z"/>
   <path class="fil2" d="M729 1676c-7,-10 -12,-12 -14,-29 -1,-6 -1,-15 -4,-19 -3,-5 -9,-6 -13,-2 -17,17 23,46 31,50z"/>
   <path class="fil2" d="M556 241c14,-7 44,-35 31,-51 -4,-4 -12,-2 -14,2 -5,8 1,34 -17,49z"/>
   <path class="fil2" d="M1617 1259c-6,-4 -17,-16 -17,-26 -2,12 4,41 16,49 5,3 11,6 15,1 12,-10 -8,-20 -14,-24z"/>
   <path class="fil2" d="M1408 436c3,33 -8,35 -11,47 -4,17 25,19 21,-15 -1,-11 -5,-24 -10,-32z"/>
   <path class="fil2" d="M587 288c15,1 21,2 31,10 5,4 23,17 26,3 2,-10 -12,-17 -21,-18 -11,-1 -28,0 -36,5z"/>
   <path class="fil2" d="M1021 188c14,4 44,1 52,-10 2,-3 6,-10 1,-15 -12,-13 -17,20 -53,25z"/>
   <path class="fil2" d="M160 680c-1,-17 -5,-39 -18,-49 -14,-10 -26,5 -13,14 17,13 23,14 31,35z"/>
   <path class="fil2" d="M1633 997l3 1c19,-3 18,-25 1,-28l-3 0c-15,5 -15,21 -1,27z"/>
   <path class="fil2" d="M124 942l4 1c7,-2 12,-5 12,-13 1,-9 -4,-12 -11,-14l-4 0c-6,2 -11,6 -11,13 -1,9 4,11 10,13z"/>
   <path class="fil2" d="M1655 674c-5,12 -5,33 2,45 3,-2 6,-6 7,-10 6,-14 1,-32 -9,-35z"/>
   <path class="fil2" d="M1669 725c15,-3 32,-17 36,-29 -19,-4 -34,12 -36,29z"/>
   <path class="fil2" d="M63 1218c20,3 34,-12 36,-29 -15,5 -31,16 -36,29z"/>
   <path class="fil2" d="M110 1194c-10,16 -12,37 4,46 2,-8 4,-15 2,-25 0,-6 -2,-17 -6,-21z"/>
   <path class="fil1" d="M519 768c0,-7 6,-8 7,1l-7 -1zm-4 -11c-3,2 -5,1 -6,6 -3,11 11,15 19,12 13,-5 4,-25 -13,-18z"/>
   <path class="fil1" d="M1015 1109c-1,-7 7,-8 8,1l-8 -1zm-4 -11c-3,2 -5,0 -6,6 -2,11 11,15 19,12 13,-5 3,-24 -13,-18z"/>
   <path class="fil2" d="M1204 1712c7,-12 -7,-21 -4,-40 -5,6 -9,13 -9,23 0,10 3,18 13,17z"/>
   <path class="fil2" d="M1014 269c11,1 14,-7 13,-18 0,-10 -5,-17 -9,-22 4,18 -10,27 -4,40z"/>
   <path class="fil2" d="M1135 1581c-5,16 13,28 30,28 -9,-5 -10,-7 -15,-17 -3,-7 -6,-15 -15,-11z"/>
   <path class="fil2" d="M272 1502c8,3 14,-3 19,-6 10,-8 9,-5 18,-9 -9,-2 -17,-5 -27,-1 -6,4 -12,8 -10,16z"/>
   <path class="fil2" d="M730 1718c-18,0 -35,24 -26,31 12,11 13,-27 26,-31z"/>
   <path class="fil2" d="M551 234c4,-2 8,-13 9,-18 4,-26 -23,-32 -12,-5 3,7 7,18 3,23z"/>
   <path class="fil2" d="M354 1450c1,0 1,-1 1,-1 0,1 3,-4 14,-14 3,-2 15,-10 10,-15 -6,-7 -16,4 -19,7 -4,6 -5,14 -6,23z"/>
   <path class="fil2" d="M587 296c0,1 2,1 2,1l3 2c11,7 16,34 25,25 7,-5 -4,-18 -6,-20 -6,-5 -16,-7 -24,-8z"/>
   <path class="fil2" d="M1445 404c9,2 15,4 25,1 5,-2 15,-8 12,-15 -3,-9 -15,2 -18,4 -2,2 -6,5 -9,7 -4,2 -7,1 -10,3z"/>
   <path class="fil2" d="M1401 441c-1,1 -1,1 -1,2 0,0 -1,0 -1,0 -13,17 -29,21 -22,29 6,6 24,-3 24,-31z"/>
   <path class="fil2" d="M1021 181c8,-3 15,-5 20,-12 6,-5 10,-13 5,-22 -17,-1 -10,25 -25,34z"/>
   <path class="fil2" d="M738 1629c-10,-1 -14,8 -14,18 1,11 7,17 10,23 -6,-19 10,-25 4,-41z"/>
   <path class="fil2" d="M1588 1005c-14,3 -7,21 5,17 10,-3 8,-21 -5,-17z"/>
   <path class="fil2" d="M576 67c3,1 8,4 12,2 4,-2 8,-8 4,-14 -5,-7 -20,-6 -16,12z"/>
   <path class="fil2" d="M1172 1838c-11,-6 -22,1 -15,12 4,8 20,6 15,-12z"/>
   <path class="fil2" d="M904 1738c7,-12 -12,-19 -17,-9 -5,12 11,19 17,9z"/>
   <path class="fil2" d="M852 160c-13,6 -4,22 7,16 10,-5 3,-23 -7,-16z"/>
   <path class="fil2" d="M1422 1393c0,2 -5,6 0,13 7,9 22,-2 14,-12 -3,-5 -13,-2 -14,-1z"/>
   <path class="fil2" d="M744 311c0,0 -9,3 -4,13 1,3 8,6 13,2 9,-5 1,-22 -9,-15z"/>
   <path class="fil2" d="M1011 1592c8,-11 -2,-21 -12,-16 -6,5 -5,20 12,16z"/>
   <path class="fil2" d="M1406 365c2,11 21,8 18,-5 -3,-11 -21,-8 -18,5z"/>
   <path class="fil2" d="M330 1531c1,11 20,8 18,-4 -2,-12 -20,-9 -18,4z"/>
   <path class="fil2" d="M170 891c-11,4 -7,21 6,17 11,-4 5,-22 -6,-17z"/>
   <path class="fil2" d="M272 445c6,-11 -11,-19 -16,-9 -6,12 11,19 16,9z"/>
   <path class="fil2" d="M324 501c-13,6 -4,22 7,17 10,-5 4,-21 -7,-17z"/>
   <path class="fil2" d="M1482 1472c2,12 20,9 18,-3 -2,-12 -20,-9 -18,3z"/>
   <path class="fil1" d="M1382 779c4,-1 27,-16 31,-20 -2,-3 -1,-3 -6,-6 -1,2 -3,3 -6,5l-15 12c-4,4 -5,3 -4,9z"/>
   <path class="fil2" d="M566 1594c8,-4 19,-13 20,-24 -13,2 -20,10 -20,24z"/>
   <path class="fil2" d="M560 1588c0,0 0,0 0,-1 3,-8 0,-21 -10,-25 -1,12 2,23 8,30l2 -4z"/>
   <path class="fil2" d="M1209 229c5,-3 8,-7 8,-13 1,-3 1,-6 0,-9 -1,-5 -3,-6 -5,-8 -3,4 -4,8 -4,13 -1,6 -1,13 1,17z"/>
   <path class="fil2" d="M1203 332c2,-11 -2,-23 -8,-29 -3,5 -5,11 -2,18 1,5 6,10 10,11z"/>
   <path class="fil2" d="M1167 325c13,-2 19,-9 20,-24 -9,5 -17,12 -20,24z"/>
   <path class="fil2" d="M541 1666c-8,8 -11,19 -2,29 5,-5 5,-21 4,-26 -1,-3 -1,-3 -2,-3z"/>
   <path class="fil2" d="M1217 234c11,-2 23,-8 26,-16 -14,-3 -24,6 -26,16z"/>
   <path class="fil2" d="M510 1676c14,3 22,-5 25,-16 -6,1 -27,8 -25,16z"/>
   <path class="fil2" d="M1537 770c13,1 19,-4 29,-7 -2,-1 -3,-3 -8,-4 -3,-1 -6,0 -9,0 -7,2 -10,6 -12,11z"/>
   <path class="fil2" d="M1568 754c-3,-7 -13,-18 -23,-20 2,13 9,20 23,20z"/>
   <path class="fil2" d="M201 1150c6,3 10,5 18,2 5,-1 11,-6 10,-10 -9,-2 -21,4 -28,8z"/>
   <path class="fil2" d="M222 1178c-1,-14 -8,-20 -22,-20 3,7 13,18 22,20z"/>
   <path class="fil2" d="M764 1679c0,-1 4,-3 1,-8 -2,-2 -5,-3 -8,-1 -5,2 -4,13 7,9z"/>
   <path class="fil2" d="M1686 1020c0,-6 0,-11 -7,-9 -5,1 -4,4 -3,9 5,2 4,2 10,0z"/>
   <path class="fil2" d="M1002 175c-9,-2 -14,3 -9,9 5,5 11,0 9,-9z"/>
   <path class="fil2" d="M1655 739c0,8 13,6 10,-2 -1,-6 -11,-5 -10,2z"/>
   <path class="fil2" d="M995 229c2,-5 2,-5 0,-10l-7 0c-5,8 -2,11 7,10z"/>
   <path class="fil2" d="M1314 408c-2,5 -1,5 1,10l7 0c4,-8 -1,-14 -8,-10z"/>
   <path class="fil2" d="M1357 246c5,3 5,4 11,0 1,-12 -12,-13 -11,0z"/>
   <path class="fil2" d="M1045 1451c3,-5 2,-5 0,-10l-8 0c-3,8 0,12 8,10z"/>
   <path class="fil2" d="M708 457c2,3 2,4 7,5l5 -3c0,-11 -9,-10 -12,-2z"/>
   <path class="fil2" d="M80 893c-5,6 -4,13 4,10 4,-1 7,-12 -4,-10z"/>
   <path class="fil2" d="M756 1713c-10,-1 -10,8 -5,10 3,2 6,0 8,-2 1,-3 -2,-6 -3,-8z"/>
   <path class="fil2" d="M381 344c4,10 16,4 9,-6 -6,0 -7,1 -9,6z"/>
   <path class="fil2" d="M393 1654c0,-5 4,-1 0,-10l-7 0c-4,7 -1,12 7,10z"/>
   <path class="fil2" d="M1362 1561c-4,9 3,12 10,8 0,-8 -2,-10 -10,-8z"/>
   <polygon class="fil2" points="103,1180 112,1179 112,1170 102,1171 "/>
   <path class="fil2" d="M441 1483c1,-6 0,-9 -8,-7 -6,7 1,12 8,7z"/>
   <path class="fil2" d="M192 1158c0,-1 1,3 1,-3 -1,-6 0,-1 -1,-3 -10,-4 -11,10 0,6z"/>
   <path class="fil2" d="M1576 754c-2,2 -2,-3 -2,3 0,7 0,1 1,4 11,3 9,-10 1,-7z"/>
   <path class="fil3" d="M1041 1691c8,-1 2,0 4,-2 -5,1 -2,0 -5,2l1 0zm3 1c-2,-1 -1,-1 -1,1l1 -1z"/>
   <path class="fil3" d="M742 124l-3 -1 0 4c2,-3 1,-1 3,-3z"/>
  </g>
 </g>
</svg>
